<svg width="64" height="64" viewBox="0 0 64 64" fill="none" xmlns="http://www.w3.org/2000/svg">
<path fill-rule="evenodd" clip-rule="evenodd" d="M53.3334 8H10.6667C7.73337 8 5.33337 10.4 5.33337 13.3333V50.6667C5.33337 53.6 7.73337 56 10.6667 56H53.3334C56.2667 56 58.6667 53.6 58.6667 50.6667V13.3333C58.6667 10.4 56.2667 8 53.3334 8ZM53.3334 50.6667H10.6667V13.3333H53.3334V50.6667Z" fill="#C5C5C5"/>
<path fill-rule="evenodd" clip-rule="evenodd" d="M51.76 27.7867L47.9733 24L39.52 32.4533L35.76 28.6667L32 32.4267L39.52 40L51.76 27.7867Z" fill="#C5C5C5"/>
<path d="M26.6667 18.6665H13.3334V23.9998H26.6667V18.6665Z" fill="#C5C5C5"/>
<path d="M26.6667 29.3335H13.3334V34.6668H26.6667V29.3335Z" fill="#C5C5C5"/>
<path d="M26.6667 40H13.3334V45.3333H26.6667V40Z" fill="#C5C5C5"/>
</svg>
