<svg width="64" height="64" viewBox="0 0 64 64" fill="none" xmlns="http://www.w3.org/2000/svg">
<path d="M31.9734 5.3335C17.2534 5.3335 5.33337 17.2802 5.33337 32.0002C5.33337 46.7202 17.2534 58.6668 31.9734 58.6668C46.72 58.6668 58.6667 46.7202 58.6667 32.0002C58.6667 17.2802 46.72 5.3335 31.9734 5.3335ZM50.4534 21.3335H42.5867C41.7334 18.0002 40.5067 14.8002 38.9067 11.8402C43.8134 13.5202 47.8934 16.9335 50.4534 21.3335ZM32 10.7735C34.2134 13.9735 35.9467 17.5202 37.0934 21.3335H26.9067C28.0534 17.5202 29.7867 13.9735 32 10.7735ZM11.36 37.3335C10.9334 35.6268 10.6667 33.8402 10.6667 32.0002C10.6667 30.1602 10.9334 28.3735 11.36 26.6668H20.3734C20.16 28.4268 20 30.1868 20 32.0002C20 33.8135 20.16 35.5735 20.3734 37.3335H11.36ZM13.5467 42.6668H21.4134C22.2667 46.0002 23.4934 49.2002 25.0934 52.1602C20.1867 50.4802 16.1067 47.0935 13.5467 42.6668ZM21.4134 21.3335H13.5467C16.1067 16.9068 20.1867 13.5202 25.0934 11.8402C23.4934 14.8002 22.2667 18.0002 21.4134 21.3335ZM32 53.2268C29.7867 50.0268 28.0534 46.4802 26.9067 42.6668H37.0934C35.9467 46.4802 34.2134 50.0268 32 53.2268ZM38.24 37.3335H25.76C25.52 35.5735 25.3334 33.8135 25.3334 32.0002C25.3334 30.1868 25.52 28.4002 25.76 26.6668H38.24C38.48 28.4002 38.6667 30.1868 38.6667 32.0002C38.6667 33.8135 38.48 35.5735 38.24 37.3335ZM38.9067 52.1602C40.5067 49.2002 41.7334 46.0002 42.5867 42.6668H50.4534C47.8934 47.0668 43.8134 50.4802 38.9067 52.1602ZM43.6267 37.3335C43.84 35.5735 44 33.8135 44 32.0002C44 30.1868 43.84 28.4268 43.6267 26.6668H52.64C53.0667 28.3735 53.3334 30.1602 53.3334 32.0002C53.3334 33.8402 53.0667 35.6268 52.64 37.3335H43.6267Z" fill="#C5C5C5"/>
</svg>
