<svg width="64" height="64" viewBox="0 0 64 64" fill="none" xmlns="http://www.w3.org/2000/svg">
<path d="M29.3334 49.3333L40 38.6667L29.3334 28L26.6667 30.6667L34.6667 38.6667L26.6667 46.6667L29.3334 49.3333ZM53.3334 18.6667H42.6667V13.3333C42.6667 11.8667 42.08 10.5333 41.0934 9.57333C40.1334 8.58667 38.8 8 37.3334 8H26.6667C23.7334 8 21.3334 10.4 21.3334 13.3333V18.6667H10.6667C7.73337 18.6667 5.33337 21.0667 5.33337 24V53.3333C5.33337 56.2667 7.73337 58.6667 10.6667 58.6667H53.3334C56.2667 58.6667 58.6667 56.2667 58.6667 53.3333V24C58.6667 21.0667 56.2667 18.6667 53.3334 18.6667ZM26.6667 13.3333H37.3334V18.6667H26.6667V13.3333ZM53.3334 53.3333H10.6667V24H53.3334V53.3333Z" fill="#C5C5C5"/>
</svg>
