<svg width="64" height="64" viewBox="0 0 64 64" fill="none" xmlns="http://www.w3.org/2000/svg">
<path d="M50.8533 13.1468L47.0933 16.9068C50.9333 20.7735 53.3333 26.1068 53.3333 32.0002C53.3333 43.7868 43.7866 53.3335 32 53.3335C20.2133 53.3335 10.6666 43.7868 10.6666 32.0002C10.6666 21.1202 18.8 12.1602 29.3333 10.8535V16.2402C21.76 17.5202 16 24.0802 16 32.0002C16 40.8268 23.1733 48.0002 32 48.0002C40.8266 48.0002 48 40.8268 48 32.0002C48 27.5735 46.2133 23.5735 43.3066 20.6935L39.5466 24.4535C41.4666 26.4002 42.6666 29.0668 42.6666 32.0002C42.6666 37.8935 37.8933 42.6668 32 42.6668C26.1066 42.6668 21.3333 37.8935 21.3333 32.0002C21.3333 27.0402 24.7466 22.9068 29.3333 21.7068V27.4135C27.7333 28.3468 26.6666 30.0268 26.6666 32.0002C26.6666 34.9335 29.0666 37.3335 32 37.3335C34.9333 37.3335 37.3333 34.9335 37.3333 32.0002C37.3333 30.0268 36.2666 28.3202 34.6666 27.4135V5.3335H32C17.28 5.3335 5.33331 17.2802 5.33331 32.0002C5.33331 46.7202 17.28 58.6668 32 58.6668C46.72 58.6668 58.6666 46.7202 58.6666 32.0002C58.6666 24.6402 55.68 17.9735 50.8533 13.1468Z" fill="#C5C5C5"/>
</svg>
